<svg xmlns="http://www.w3.org/2000/svg" viewBox="0 0 150.32 109.77"><defs><style>.cls-1{fill:#231f20;}.cls-2{fill:none;}</style></defs><g id="Layer_2" data-name="Layer 2"><g id="Layer_1-2" data-name="Layer 1"><polygon class="cls-1" points="64.63 86.89 78.11 80.89 78.11 73.39 102.61 62.39 102.61 69.67 114.89 64.17 114.89 56.94 136.85 47.26 136.85 53.93 147.52 49.19 147.52 37.06 64.63 73.48 64.63 86.89"/><polyline class="cls-1" points="64.63 86.89 56 80.56 56 67.11 77.94 67.63 12 21.78 0 25.78 23.33 42.67 33.89 50.78 56 67.11 64.63 73.48 77.94 67.63"/><polygon class="cls-2" points="56 67.11 33.89 50.78 33.89 58.94 56 75.44 56 67.11"/><polygon class="cls-1" points="56 80.56 33.89 63.56 33.89 58.94 56 75.44 56 80.56"/><polygon class="cls-1" points="33.89 63.56 33.89 50.78 23.33 42.67 23.33 55.44 33.89 63.56"/><polygon class="cls-1" points="23.33 55.44 0 37.67 5.78 37.67 23.33 50.78 23.33 55.44"/><polyline class="cls-1" points="0 25.78 0 37.67 5.78 37.67 5.78 29.96 0 25.78"/><polygon class="cls-1" points="56 67.11 64.63 73.48 77.94 67.63 56 67.11"/><polygon class="cls-1" points="84.18 64.89 17.3 19.41 29.44 15.56 97.71 58.94 84.18 64.89"/><polygon class="cls-1" points="103.27 56.5 34.63 14.07 45.89 10.22 115.36 51.19 103.27 56.5"/><polygon class="cls-1" points="121.05 48.69 50.93 8.44 61.74 5.04 132.39 43.7 121.05 48.69"/><polygon class="cls-1" points="137.39 41.51 66.97 3.56 77 0 147.52 37.06 137.39 41.51"/><path class="cls-1" d="M75.08,105.42l-3.27-4.83-.92.44v6.43L67,109.37V92.17l6.53-2.91a6.49,6.49,0,0,1,3.14-.7,2.47,2.47,0,0,1,1.92,1A4.12,4.12,0,0,1,79.19,92a7.36,7.36,0,0,1-.86,3.37,9.19,9.19,0,0,1-2.56,3.06l3.56,4.93Zm-4.19-7.33L73.28,97a3.71,3.71,0,0,0,1.57-1.29,3.14,3.14,0,0,0,.52-1.8,1.36,1.36,0,0,0-.52-1.27,1.73,1.73,0,0,0-1.57.16l-2.39,1.08Z"/><path class="cls-1" d="M93.55,93.59l-5.36,2.57-.88,3.31-3.77,1.83,5.33-18.86,4-1.81L98,94.26,94.4,96ZM92.66,91,90.89,85.9l-1.77,6.76Z"/><path class="cls-1" d="M109.93,88.45l-4.42-4.72V90.6l-3.26,1.59V76.49L105.51,75v6.83l4.38-8.77,3.68-1.64-5,9.78,5.18,5.35Z"/><path class="cls-1" d="M120.72,80.4l3.85-1.85v2.78l-6.85,3.33v-15l3-1.33Z"/><path class="cls-1" d="M135.44,73.51l-4.23,2-.69,2.89-3,1.44,4.19-16.48,3.2-1.42,4,12.35-2.85,1.39Zm-.7-2.35-1.4-4.61-1.4,5.92Z"/><path class="cls-1" d="M149.91,61.89a6.77,6.77,0,0,1-1.26,2.18,6.25,6.25,0,0,1-2.13,1.61l-1.59.75v5l-2.6,1.27v-14l4.19-1.86a3.43,3.43,0,0,1,2.1-.37,1.83,1.83,0,0,1,1.28,1,4.47,4.47,0,0,1,.42,2.08A7.19,7.19,0,0,1,149.91,61.89Zm-2.5.25a2.79,2.79,0,0,0,.35-1.44,1.37,1.37,0,0,0-.35-1.11c-.24-.19-.6-.18-1.09,0l-1.39.63v3.48l1.39-.64A2.4,2.4,0,0,0,147.41,62.14Z"/><g id="Perspective_Text" data-name="Perspective Text"><path class="cls-1" d="M34,74.46v1.6l-2-1.66V87.75l-1-.83V73.62L29,72V70.42Z"/><path class="cls-1" d="M36.8,91.16a17.87,17.87,0,0,1-1.36-3.94,19.5,19.5,0,0,1-.5-4.41,10.25,10.25,0,0,1,.5-3.55,2.43,2.43,0,0,1,1.36-1.64,2.1,2.1,0,0,1,1.94.6,8,8,0,0,1,2,2.62,17.22,17.22,0,0,1,1.41,4,19.74,19.74,0,0,1,.52,4.53A10.33,10.33,0,0,1,42.12,93a2.27,2.27,0,0,1-1.41,1.58,2.24,2.24,0,0,1-2-.71A8.67,8.67,0,0,1,36.8,91.16Zm3.39,1.45c.44-.12.78-.54,1-1.26a9.07,9.07,0,0,0,.37-2.91,16.47,16.47,0,0,0-.37-3.56,12.85,12.85,0,0,0-1-3,6.06,6.06,0,0,0-1.46-2,1.5,1.5,0,0,0-1.45-.45,1.85,1.85,0,0,0-1,1.28,9.19,9.19,0,0,0-.36,2.88,16.57,16.57,0,0,0,.36,3.48,12.47,12.47,0,0,0,1,3,6,6,0,0,0,1.44,2A1.55,1.55,0,0,0,40.19,92.61ZM39.84,76l-2.34.6V75.08l2.34-.85Z"/><path class="cls-1" d="M49.15,86.93v1.68l-2.23-1.84v14l-1.05-.92v-14l-2.19-1.8V82.45Z"/><path class="cls-1" d="M57.19,93.52v16.25l-1.13-1v-7.34l-4.32-3.67V105l-1.09-1V88.16l1.09.89v7l4.32,3.64V92.59Z"/></g></g></g></svg>